<svg width="29" height="65" viewBox="0 0 29 65" fill="none" xmlns="http://www.w3.org/2000/svg">
<path d="M21.272 0.735996C22.552 0.415997 23.768 0.511997 24.92 1.024C26.648 1.856 27.416 3.328 27.224 5.44C27.16 5.76 27.096 6.048 27.032 6.304C26.328 8.736 24.728 10.368 22.232 11.2C22.104 11.2 21.976 11.232 21.848 11.296C19.992 11.808 18.424 11.424 17.144 10.144C15.672 8.608 15.512 6.752 16.664 4.576C17.56 2.528 19.096 1.248 21.272 0.735996ZM12.728 21.76C13.624 21.568 14.776 21.536 16.184 21.664C19.896 22.368 22.232 24.384 23.192 27.712C23.512 29.056 23.512 30.464 23.192 31.936L18.872 43.648C15.992 51.2 14.52 55.136 14.456 55.456C13.688 57.952 13.656 59.552 14.36 60.256C14.552 60.384 14.904 60.448 15.416 60.448C16.12 60.448 16.568 60.416 16.76 60.352C19.512 59.392 21.624 56.544 23.096 51.808C23.224 51.552 23.32 51.264 23.384 50.944C23.704 49.984 24.024 49.472 24.344 49.408C24.536 49.344 25.112 49.312 26.072 49.312C27.288 49.312 27.96 49.376 28.088 49.504C28.408 49.76 28.472 50.304 28.28 51.136C27.064 55.36 25.144 58.784 22.52 61.408C20.728 63.072 18.904 64.192 17.048 64.768C16.408 64.896 15.544 64.96 14.456 64.96C13.304 64.96 12.472 64.896 11.96 64.768C9.912 64.256 8.376 63.328 7.352 61.984C6.584 61.088 6.072 60.064 5.816 58.912C5.496 57.504 5.496 56.064 5.816 54.592L10.232 42.784C13.176 34.912 14.744 30.592 14.936 29.824C15.192 28.736 15.192 27.776 14.936 26.944C14.616 26.176 13.912 25.92 12.824 26.176C10.904 26.56 9.176 28.032 7.64 30.592C6.68 32.192 5.912 34.144 5.336 36.448C5.144 36.832 5.016 37.056 4.952 37.12C4.824 37.248 4.152 37.312 2.936 37.312H1.112L0.824 37.024C0.504 36.768 0.536 36.096 0.92 35.008C2.52 29.632 5.112 25.76 8.696 23.392C9.016 23.2 9.368 23.008 9.752 22.816C10.904 22.176 11.896 21.824 12.728 21.76Z" fill="#FB773F"/>
</svg>
