<svg width="20" height="20" viewBox="0 0 20 20" fill="none" xmlns="http://www.w3.org/2000/svg">
<path d="M14.7494 16.7494H4.4502C3.91976 16.7494 3.41105 16.5387 3.03598 16.1636C2.66091 15.7885 2.4502 15.2798 2.4502 14.7494V4.4502C2.4502 3.91976 2.66091 3.41105 3.03598 3.03598C3.41105 2.66091 3.91976 2.4502 4.4502 2.4502H14.7494C15.2798 2.4502 15.7885 2.66091 16.1636 3.03598C16.5387 3.41105 16.7494 3.91976 16.7494 4.4502V14.7494C16.7494 15.2798 16.5387 15.7885 16.1636 16.1636C15.7885 16.5387 15.2798 16.7494 14.7494 16.7494ZM4.4502 3.2502C4.13194 3.2502 3.82671 3.37662 3.60167 3.60167C3.37662 3.82671 3.2502 4.13194 3.2502 4.4502V14.7494C3.2502 15.0677 3.37662 15.3729 3.60167 15.5979C3.82671 15.823 4.13194 15.9494 4.4502 15.9494H14.7494C15.0677 15.9494 15.3729 15.823 15.5979 15.5979C15.823 15.3729 15.9494 15.0677 15.9494 14.7494V4.4502C15.9494 4.13194 15.823 3.82671 15.5979 3.60167C15.3729 3.37662 15.0677 3.2502 14.7494 3.2502H4.4502Z" fill="black"/>
<path d="M9.60022 13.2753C8.87332 13.2745 8.16296 13.0583 7.55896 12.6538C6.95495 12.2494 6.48441 11.6749 6.20682 11.0031C5.92923 10.3313 5.85705 9.59228 5.9994 8.87944C6.14176 8.16661 6.49226 7.51199 7.0066 6.99832C7.52093 6.48466 8.17602 6.13501 8.88903 5.99359C9.60205 5.85216 10.341 5.9253 11.0124 6.20377C11.6839 6.48224 12.2577 6.95353 12.6614 7.55806C13.065 8.1626 13.2804 8.87323 13.2802 9.60014C13.279 10.5753 12.8907 11.5101 12.2007 12.1992C11.5107 12.8883 10.5754 13.2753 9.60022 13.2753ZM9.60022 6.72014C9.03175 6.72093 8.47625 6.89018 8.00391 7.2065C7.53157 7.52282 7.16357 7.97203 6.94638 8.49739C6.7292 9.02275 6.67259 9.60068 6.78368 10.1582C6.89478 10.7157 7.16861 11.2278 7.57059 11.6298C7.97256 12.0318 8.48465 12.3056 9.04217 12.4167C9.59968 12.5278 10.1776 12.4712 10.703 12.254C11.2283 12.0368 11.6775 11.6688 11.9939 11.1965C12.3102 10.7241 12.4794 10.1686 12.4802 9.60014C12.4802 8.83632 12.1768 8.10378 11.6367 7.56367C11.0966 7.02357 10.364 6.72014 9.60022 6.72014Z" fill="black"/>
<path d="M13.7599 6.324C14.2349 6.324 14.6199 5.93897 14.6199 5.464C14.6199 4.98904 14.2349 4.604 13.7599 4.604C13.2849 4.604 12.8999 4.98904 12.8999 5.464C12.8999 5.93897 13.2849 6.324 13.7599 6.324Z" fill="black"/>
</svg>
