<svg width="110" height="93" viewBox="0 0 110 93" fill="none" xmlns="http://www.w3.org/2000/svg">
<path d="M28.7148 45.1069L28.8154 45.1098C28.9555 45.1825 28.9754 45.1965 29.0516 45.319C29.0415 45.4687 29.0448 45.4946 28.9433 45.6151C28.718 45.7102 28.5012 45.7379 28.256 45.7702C28.1166 45.7636 28.0504 45.7335 27.9328 45.6716C27.8375 45.5288 27.8544 45.4997 27.8712 45.3418C28.0929 45.1492 28.4155 45.1387 28.7148 45.1069Z" fill="#231F20"/>
<path d="M75.5255 39.5381C75.7964 39.5369 75.8054 39.5211 76.0002 39.676L76.0042 39.8304C75.8252 40.0899 75.4771 40.1574 75.1622 40.2585C75.0349 40.2689 74.9277 40.259 74.8016 40.2457C74.6719 40.1015 74.6739 40.1028 74.6825 39.9215C74.8557 39.7086 75.2467 39.6296 75.5255 39.5381Z" fill="#231F20"/>
<path d="M34.1045 39.2838C34.2267 39.2651 34.337 39.2572 34.4598 39.2805C34.7251 39.331 35.0742 39.4227 35.2247 39.6254C35.2321 39.8184 35.2208 39.8201 35.0941 39.967C34.8616 40.0235 34.6126 39.965 34.3876 39.9028C34.1736 39.8435 34.0505 39.7766 33.9426 39.6026C33.963 39.4267 33.9673 39.417 34.1045 39.2838Z" fill="#231F20"/>
<path d="M35.8084 44.1932C35.9538 44.1818 36.0605 44.1919 36.2022 44.2137C36.3693 44.3553 36.3518 44.3565 36.3611 44.5447C36.1751 44.7584 35.9627 44.7633 35.666 44.8147L35.3785 44.8418C35.1915 44.8392 35.1479 44.7751 35.0369 44.6665C35.0211 44.4783 35.0378 44.4823 35.1647 44.3397C35.3821 44.2451 35.5696 44.2202 35.8084 44.1932Z" fill="#231F20"/>
<path d="M74.415 44.3395C74.6637 44.2895 74.9911 44.3141 75.2405 44.3625C75.4809 44.4091 75.5545 44.4348 75.6858 44.6128C75.652 44.7619 75.6153 44.7886 75.502 44.9009L75.4614 44.9211C75.2822 44.9837 74.6767 44.9016 74.4799 44.8362C74.329 44.7861 74.324 44.7453 74.2573 44.6282C74.2833 44.4663 74.2819 44.4564 74.415 44.3395Z" fill="#231F20"/>
<path d="M80.9845 45.2048C81.2243 45.126 81.8878 45.224 82.1552 45.2784C82.3113 45.3101 82.3831 45.3935 82.4654 45.5009C82.473 45.6844 82.4885 45.6902 82.3461 45.8425C82.2047 45.8727 82.0495 45.8596 81.9058 45.8425C81.5545 45.8007 81.0924 45.7693 80.8646 45.5237C80.8639 45.35 80.8621 45.3434 80.9845 45.2048Z" fill="#231F20"/>
<path d="M27.9517 37.0065C28.0638 36.9714 28.1086 36.9647 28.2291 36.9813C28.5774 37.0296 29.2951 37.3492 29.5048 37.5833C29.5084 37.768 29.5251 37.7856 29.3873 37.9398C29.2506 37.9755 29.2004 38.0004 29.06 37.9612C28.7122 37.8641 28.0247 37.5839 27.8485 37.3025C27.8485 37.1509 27.8551 37.1344 27.9517 37.0065Z" fill="#231F20"/>
<path d="M81.962 37.1433C82.0381 37.1326 82.1193 37.1363 82.1965 37.1353L82.368 37.2799C82.4169 37.4336 82.4154 37.4479 82.3548 37.5987C82.0212 37.836 81.4475 37.9683 81.0362 38.0901C80.8289 38.0997 80.7653 38.0826 80.6099 37.9735L80.5954 37.7809C80.8208 37.436 81.5299 37.2813 81.962 37.1433Z" fill="#231F20"/>
<path d="M30.609 38.0541C30.7347 38.0213 30.8059 38.0268 30.9318 38.061C31.5751 38.2362 32.2152 38.5013 32.8385 38.7257C33.1036 38.821 33.5288 38.9187 33.6667 39.1472C33.6405 39.294 33.5904 39.3608 33.4816 39.4757L33.3461 39.5264C33.0138 39.4917 32.6987 39.3528 32.3916 39.245L30.7572 38.6454C30.5726 38.5698 30.5135 38.512 30.4471 38.3502C30.4798 38.1926 30.482 38.1706 30.609 38.0541Z" fill="#231F20"/>
<path d="M79.5871 38.1711L79.6786 38.1689C79.8708 38.1779 79.8777 38.208 79.9972 38.3276C80.0095 38.4358 80.0227 38.4911 79.9683 38.5939C79.9294 38.6672 79.8706 38.7063 79.7933 38.7502C79.5352 38.8967 79.1633 38.9766 78.8709 39.069L77.051 39.6439C76.94 39.6397 76.865 39.6194 76.7602 39.591C76.6318 39.4533 76.6294 39.4272 76.6058 39.2613C76.6322 39.2228 76.6505 39.1794 76.685 39.1456C76.808 39.0252 77.249 38.9185 77.4223 38.8619C78.1405 38.6272 78.8446 38.345 79.5871 38.1711Z" fill="#231F20"/>
<path d="M76.5788 44.6583L76.6391 44.6416C76.9073 44.5888 79.844 44.9062 80.0778 45.0576C80.1542 45.1072 80.1779 45.1925 80.1747 45.2731C80.1692 45.4208 80.0887 45.485 79.9734 45.5841C79.6132 45.6066 79.2515 45.5333 78.8957 45.4908L76.5794 45.1742C76.4384 45.0774 76.4068 45.0332 76.355 44.886C76.4107 44.7356 76.4187 44.7424 76.5788 44.6583Z" fill="#231F20"/>
<path d="M33.3725 44.5136L33.7779 44.4824C33.9301 44.4919 33.9935 44.5822 34.0742 44.6762C34.0787 44.8298 34.0783 44.8605 33.9934 44.9947C33.7013 45.1379 33.2848 45.1694 32.9553 45.2215L30.666 45.5273L30.6187 45.5396C30.4365 45.5575 30.1772 45.5709 30.0554 45.4329C29.9503 45.3136 29.9772 45.2723 30.0093 45.1368C30.0534 45.0942 30.0881 45.043 30.1415 45.0089C30.2853 44.9173 30.8118 44.8793 31.0136 44.8537L33.3725 44.5136Z" fill="#231F20"/>
<path d="M78.7739 52.6748C78.8942 52.6865 78.955 52.6788 79.0574 52.7386C79.2549 52.8538 79.3801 53.0544 79.4887 53.2309C79.89 53.8829 80.1433 54.6943 80.2767 55.418C81.315 61.0478 78.2281 66.4821 73.2824 70.1795C71.4648 71.5385 69.3157 72.6858 67.173 73.6371C64.1427 74.9826 60.6628 75.7765 58.0205 77.678C57.0096 78.4055 56.0764 79.4591 55.681 80.5412C55.5852 80.8032 55.6 81.2851 55.4099 81.478C55.3397 81.5491 55.2505 81.5826 55.1382 81.5738C55.0045 81.5633 54.9307 81.5002 54.8758 81.4028C54.7977 81.2645 54.7727 81.0365 54.731 80.8835C54.6279 80.5051 54.5146 80.1538 54.3044 79.8069C53.5113 78.4986 52.2986 77.5325 50.8465 76.7438C49.2564 75.8803 47.4716 75.2536 45.7509 74.6014C43.2984 73.6719 40.8663 72.6779 38.694 71.3252C37.2891 70.4503 36.0288 69.4276 34.8976 68.3063C31.622 65.0596 29.5435 60.7228 29.9677 56.4115C30.0608 55.4653 30.4458 54.5479 30.9367 53.7001C31.072 53.4661 31.195 53.2011 31.4345 53.0306C31.6562 53.0222 31.6643 53.0138 31.8554 53.1303C31.8803 53.1758 31.9201 53.2174 31.9302 53.2669C31.9445 53.337 31.8923 53.4958 31.8778 53.5756L31.7038 54.4652C31.6348 54.9735 31.6343 55.517 31.7121 56.0245L31.7262 56.1136C31.7702 56.4048 31.8464 56.659 31.9565 56.9363C32.3492 57.9251 33.0745 58.6571 34.1801 59.1216C34.6021 59.2791 35.0996 59.4052 35.5638 59.4056C35.8937 59.4059 36.2951 59.2988 36.6062 59.3945C36.6896 59.489 36.7672 59.5844 36.7393 59.7117C36.7208 59.7956 36.6856 59.8392 36.6096 59.891C36.1188 60.2262 35.0471 60.2058 34.459 60.1284C33.3173 59.9782 32.4408 59.5594 31.752 58.7661C31.5269 58.5068 31.3526 58.2204 31.1307 57.9618C31.2526 59.2699 31.4765 60.5529 31.9507 61.8069C32.4968 63.2511 33.3324 64.5881 34.3125 65.8515C36.0884 68.1406 38.3147 69.9723 41.0839 71.4004C42.8553 72.3139 44.7602 73.0511 46.645 73.7794C49.3055 74.8077 52.0399 75.7463 54.0605 77.6134C54.4814 78.0023 54.812 78.4735 55.1486 78.916C55.8556 78.1094 56.4825 77.3669 57.4132 76.7203C59.6434 75.1711 62.4315 74.3416 65.0283 73.3466C67.9845 72.2137 70.8218 70.7332 73.1809 68.8374C76.825 65.9089 79.182 61.9904 79.3132 57.7068L78.6609 58.5535C77.9283 59.3755 76.8533 59.9548 75.6304 60.077C75.0848 60.1317 74.1946 60.1979 73.7456 59.8956C73.6751 59.7816 73.6878 59.6982 73.6986 59.5751C73.7643 59.4839 73.791 59.4136 73.9208 59.3793C74.0654 59.3411 74.2763 59.3778 74.4268 59.3863C75.0745 59.4229 75.6696 59.323 76.2499 59.0723C78.3545 58.1633 78.7328 56.0312 78.5442 54.2319C78.5035 53.8424 78.2855 53.243 78.4246 52.8798C78.506 52.7925 78.5543 52.7346 78.6826 52.6985L78.7739 52.6748Z" fill="#231F20"/>
<path d="M55.0955 11.4551L55.2729 11.4688C55.3844 11.5381 55.4578 11.5974 55.512 11.7073C55.7181 12.1252 55.802 12.6659 55.9044 13.1122L56.3707 15.1341C57.8492 15.216 59.3413 15.7237 60.572 16.4061C62.9327 17.715 64.3106 19.7223 64.8659 22.0266C65.9894 22.1531 67.0928 22.3855 68.1782 22.6583C68.8026 22.8153 69.4357 23.0188 70.0697 23.1402C70.1899 23.1633 70.2867 23.1591 70.4063 23.139C71.1131 23.02 71.8922 22.9961 72.6114 22.9933C73.5587 22.9896 74.5444 23.0243 75.4598 23.2503C76.3658 23.4739 77.3843 23.8416 77.8398 24.5893C78.3518 25.4296 77.9441 26.4265 77.6076 27.2611C76.3052 30.4913 73.8539 33.4225 70.9639 35.7815C69.7785 36.7489 68.4997 37.5982 67.1494 38.3943L66.8844 38.5494C66.8718 38.5566 66.8485 38.5585 66.8466 38.5713C66.8401 38.619 66.946 38.792 66.9703 38.8415C67.2842 39.4809 67.1951 39.9932 66.9503 40.6357C68.3511 42.2102 68.8853 44.3846 68.2662 46.2896C68.1648 46.6014 68.0232 46.8976 67.8711 47.1938C67.8389 47.2565 67.6963 47.4667 67.6978 47.5253C67.6996 47.5996 67.8463 47.7381 67.8997 47.8039C68.0574 47.9977 68.1974 48.1992 68.3262 48.4076C68.9673 49.4458 69.2149 50.6809 69.0335 51.8404C68.9013 52.686 68.5988 53.4915 68.0876 54.2306C66.0858 57.1249 62.2448 58.6025 58.5638 59.4233L58.5735 67.5928C59.713 67.1468 60.4445 66.4548 61.0232 65.5186C61.135 65.3377 61.214 65.0576 61.37 64.9099C61.4619 64.823 61.529 64.8307 61.6568 64.8182C61.7083 64.8527 61.7567 64.8813 61.7973 64.9267C62.0275 65.1847 61.971 66.6106 61.9436 66.9767C61.7001 70.2311 58.3891 72.8894 55.6681 74.9227L55.1569 75.3205C53.741 74.1536 52.2326 73.0816 51.0032 71.7616C49.437 70.0799 48.5576 68.4281 48.5473 66.2686C48.5455 65.884 48.5213 65.4667 48.5908 65.0861C48.618 64.9376 48.6383 64.892 48.7813 64.804C48.9759 64.8128 48.9782 64.8185 49.1266 64.9267L49.172 65.0378C49.6493 66.1581 50.5895 67.0608 51.8662 67.5604C51.9226 67.3636 51.8845 67.1128 51.8824 66.9098L51.8747 65.6181L51.8412 59.817C51.1367 59.7767 50.3993 59.6205 49.7161 59.474C47.8633 59.0764 45.953 58.4827 44.3954 57.5264C41.8154 55.9425 40.2383 53.7941 40.5758 51.035C40.6351 50.5508 40.7944 50.0469 40.9425 49.5775L41.43 48.2111C41.4965 48.0508 41.704 47.7449 41.7068 47.5987C41.7075 47.5615 41.6149 47.423 41.5949 47.3842L41.2529 46.6585C41.1236 46.339 41.0485 46.0147 40.9803 45.6833C40.5801 43.7384 41.0457 41.8695 41.9954 40.0982C41.9505 39.7717 41.9245 39.3778 41.9983 39.0551L42.0586 38.8037C42.0709 38.7546 42.1171 38.7035 42.0962 38.6565C42.0939 38.6514 41.9599 38.5723 41.9449 38.5629L41.3129 38.1425C38.5447 36.2423 36.3278 33.9531 34.5693 31.3324C33.7004 30.0375 32.9809 28.6426 32.5254 27.2033C32.3029 26.5007 32.0984 25.6126 32.3451 24.8976L32.3725 24.823C32.5048 24.4497 32.7092 24.1928 33.0651 23.9429C33.3703 23.7286 33.7832 23.5697 34.1509 23.4462C36.0607 22.8048 38.2614 22.9932 40.2503 23.2061C40.3853 23.2206 40.4844 23.2338 40.6175 23.198C41.0383 23.085 41.4484 22.9149 41.8655 22.7878C43.0152 22.4376 44.2626 22.1048 45.4746 21.9685C45.6819 20.7074 46.3006 19.4853 47.189 18.4607C48.8527 16.5415 51.2551 15.4598 54.0096 15.1089L54.7998 11.7877C54.8501 11.6169 54.9201 11.5449 55.0955 11.4551Z" fill="#231F20"/>
<path d="M52.5819 59.8677L54.1955 59.9066C54.279 60.1451 54.2359 60.4914 54.2373 60.7451L54.2412 62.4789L54.2495 69.1374L54.1283 69.1623C53.5823 68.9664 52.848 68.6321 52.5595 68.1684C52.4827 68.045 52.4791 67.9515 52.5305 67.8212C52.6231 67.5866 52.5864 67.287 52.5872 67.0414L52.5903 65.5757L52.5819 59.8677Z" fill="#FEFEFE"/>
<path d="M57.6251 59.5873L57.8049 59.5654C57.9115 59.6784 57.8464 65.5378 57.846 66.2313L57.8498 67.3384C57.8523 67.4348 57.8293 67.6417 57.8631 67.7275C57.8842 67.781 57.942 67.8186 57.9813 67.8641C57.9758 67.9229 57.9786 67.9329 57.9511 67.997C57.7481 68.4713 57.0522 68.8191 56.5591 69.0514L56.2696 69.1656L56.1899 69.1166L56.1939 59.7832L57.6251 59.5873Z" fill="#FEFEFE"/>
<path d="M56.9724 18.2207C58.4916 18.5159 60.0124 19.5088 60.8357 20.6097C61.6598 21.7116 61.9724 23.0422 61.6357 24.322C61.5214 24.7569 61.3563 25.1589 61.1434 25.5659C61.0345 25.7623 60.8921 25.9427 60.7558 26.126C60.6774 25.708 60.5678 25.2969 60.3557 24.9109C59.872 24.0311 58.9654 23.6033 57.947 23.2853L56.9724 18.2207Z" fill="#FEFEFE"/>
<path d="M53.1674 18.2868C53.239 18.2736 53.3103 18.2747 53.3833 18.2725C53.4349 18.4291 53.3306 18.7259 53.2946 18.8909L52.9975 20.3574L52.4911 23.2573C52.1062 23.3637 51.7161 23.4732 51.3682 23.6521C50.3133 24.1942 49.8078 25.0049 49.5256 25.993L49.4943 25.9907L49.2939 25.6791L48.9185 24.8934C48.4334 23.6275 48.5348 22.1723 49.2554 20.9832C50.0607 19.6541 51.5017 18.734 53.1674 18.2868Z" fill="#FEFEFE"/>
<path d="M64.9555 22.7119C65.487 22.7442 66.0433 22.8882 66.5592 23.0015C69.4586 23.6382 72.2674 24.8748 74.5526 26.5099L73.2439 27.4511L71.9192 28.3293C71.6955 28.2189 71.4939 28.0421 71.2925 27.9034C71.0194 27.7153 70.7319 27.5448 70.44 27.3782C68.6898 26.3797 66.7587 25.6236 64.7169 25.1606C64.8772 24.3262 64.973 23.5567 64.9555 22.7119Z" fill="#FEFEFE"/>
<path d="M56.5537 15.8926C57.1281 15.9798 57.6567 16.0732 58.2056 16.2497C60.6091 17.0223 62.37 18.4157 63.4075 20.4123C64.3109 22.1505 64.3245 24.2056 63.4915 25.9632C62.6958 27.6419 61.0536 28.8887 59.1131 29.5901C58.755 29.7112 58.3994 29.8015 58.0192 29.8574L58.0263 28.8978C58.6102 28.6808 59.1747 28.4446 59.6968 28.1328C61.167 27.2548 62.2255 25.8092 62.5187 24.3087C62.8335 22.6981 62.3481 21.1069 61.2215 19.7967C60.2064 18.6163 58.5757 17.7427 56.8746 17.5116L56.5537 15.8926Z" fill="#FEFEFE"/>
<path d="M53.734 15.873L53.8105 15.9186L53.5556 17.4245C53.1338 17.5016 52.7094 17.5991 52.3101 17.7387C50.5561 18.3523 49.0031 19.4971 48.2869 21.0051C47.5749 22.5043 47.5698 24.1721 48.3376 25.658C49.16 27.25 50.514 28.2517 52.4069 28.8785L52.4261 29.8637L51.2703 29.5133L49.6972 28.8189C48.0852 27.9664 46.8595 26.386 46.4469 24.8243C45.926 22.8519 46.3878 20.7848 47.6843 19.0944C49.0389 17.3284 51.3525 16.2988 53.734 15.873Z" fill="#FEFEFE"/>
<path d="M45.302 22.7051L45.4083 22.7506C45.3963 23.631 45.4645 24.4286 45.7359 25.2819C43.9394 25.6373 42.0137 26.3963 40.4258 27.198L38.3175 28.3656L37.063 27.5231L35.5486 26.3888C35.7318 26.1886 36.0906 26.0123 36.3351 25.8613C37.0066 25.4466 37.7442 25.1169 38.479 24.7905C40.6305 23.8349 42.9236 23.1289 45.302 22.7051Z" fill="#FEFEFE"/>
<path d="M65.1813 39.4204L65.3135 39.4092C65.3236 39.4688 65.3273 39.4722 65.3201 39.5424C65.2518 40.2021 64.2074 41.1015 63.6524 41.5227C60.9329 43.5867 56.9825 44.3277 53.414 44.1587C50.3695 44.0145 46.7136 43.2228 44.6173 41.2339C44.085 40.6601 43.7706 40.1394 43.5969 39.4229C44.0662 39.6017 44.5004 39.8569 44.9612 40.0546C45.8814 40.4495 46.8466 40.7632 47.8331 41.0173C52.6157 42.2494 57.9763 42.0391 62.6126 40.4782C63.4986 40.1798 64.3398 39.7973 65.1813 39.4204Z" fill="#FEFEFE"/>
<path d="M64.4284 25.7729C65.2946 26.0171 66.1586 26.2458 66.9993 26.5501C68.4989 27.0926 70.0016 27.8731 71.2545 28.7542C70.3435 29.3463 69.2799 29.8519 68.2628 30.3007C66.7049 30.9882 65.1263 31.5775 63.4744 32.0839C61.7141 32.6073 59.8534 32.9363 58.0104 33.1696L58.0026 30.5954C58.8321 30.4218 59.6054 30.2115 60.3572 29.8617C62.2047 29.0018 63.8419 27.5101 64.4284 25.7729Z" fill="#FEFEFE"/>
<path d="M63.3089 28.8535C63.7699 28.889 64.3289 29.1641 64.7544 29.33C64.9132 29.3919 65.1383 29.46 65.265 29.5627C65.3616 29.6409 65.3737 29.7721 65.3852 29.8783C65.3237 30.0293 65.2932 30.0789 65.1418 30.1744C65.0686 30.1876 65.0392 30.1969 64.9689 30.197C64.7869 30.1971 64.5953 30.0915 64.4341 30.025C64.0948 29.885 63.3676 29.666 63.1386 29.4228C63.0498 29.3287 63.0423 29.2203 63.0692 29.104C63.099 28.9753 63.1929 28.9247 63.3089 28.8535Z" fill="#231F20"/>
<path d="M45.8982 25.9844H45.9894C46.1342 26.1248 46.1885 26.3371 46.2767 26.5082C46.3893 26.7261 46.5266 26.9382 46.6677 27.1437C47.9668 29.0347 50.0113 30.0166 52.4515 30.5605L52.4508 33.2141C50.4904 33.0294 48.6244 32.7439 46.7455 32.2208C44.0229 31.4836 41.2981 30.3175 39.0404 28.8288C39.5504 28.4773 40.1231 28.1835 40.6846 27.8954C42.2764 27.0789 44.0879 26.36 45.8982 25.9844Z" fill="#FEFEFE"/>
<path d="M46.4793 29.0098L46.7342 29.0111C46.8608 29.0314 46.9498 29.0892 47.0195 29.1781C47.1095 29.2926 47.0858 29.4137 47.0574 29.5403C46.5194 29.8871 45.7791 30.1198 45.1596 30.3515C45.1152 30.3635 45.0876 30.3738 45.0372 30.3722C44.8836 30.3674 44.7947 30.3255 44.687 30.2361C44.6171 30.0889 44.6004 30.0156 44.6354 29.8589C44.8745 29.6257 45.2274 29.536 45.5517 29.4106L46.4793 29.0098Z" fill="#231F20"/>
<path d="M55.2013 13.8936C55.3937 14.4284 55.4344 15.0681 55.5428 15.6224L56.1294 18.5374C56.4945 20.6598 57.0496 22.7649 57.2193 24.9068C57.3325 26.3344 57.2332 27.78 57.1946 29.2097L57.1675 33.2247L55.6458 33.2999L55.6267 29.063C55.6294 28.5005 55.7179 27.8309 55.6223 27.2786C55.6031 27.167 55.5495 27.1209 55.4422 27.0624L55.3537 27.0162L55.2981 27.0113C55.1463 27.0059 54.9913 27.0417 54.8848 27.1375C54.8162 27.1993 54.7947 27.2607 54.7889 27.3435C54.7424 28.0129 54.7944 28.7093 54.7979 29.381L54.7956 33.2979L53.2967 33.2803L53.2686 29.5247C53.223 28.1823 53.1193 26.8364 53.1921 25.493C53.2885 23.7116 53.6644 22.0042 53.9859 20.247L55.2013 13.8936Z" fill="#FEFEFE"/>
<path d="M65.6808 41.7889L65.8005 41.7754C66.5321 42.7776 66.8514 44.1736 66.6083 45.3267C66.2661 46.9504 64.8876 48.2487 63.329 49.1661C59.8257 51.228 55.1176 51.6986 50.9901 51.0608C48.055 50.6072 45.3392 49.6236 43.5941 47.4889L43.05 46.6556C42.2283 45.1717 42.3021 43.3089 42.9569 41.7866C43.4235 42.2425 43.9038 42.66 44.4582 43.0416C47.7124 45.2817 52.7115 45.8309 56.7718 45.475C60.0598 45.1869 63.5564 44.0089 65.6808 41.7889Z" fill="#FEFEFE"/>
<path d="M66.4872 48.7578C66.5445 48.7947 66.5554 48.7985 66.6095 48.852C67.2649 49.5009 67.3924 50.7495 67.2469 51.5497C66.9182 53.3579 65.4984 54.849 63.7853 55.8962C62.5447 56.6545 61.1548 57.1843 59.7086 57.5938C57.0773 58.3389 54.3 58.6525 51.5458 58.2679C48.4461 57.8351 45.0681 56.8224 43.1676 54.5831L42.8314 54.0761C41.8667 52.416 42.138 50.6744 42.8253 48.9832C45.354 51.4139 49.1776 52.4813 52.9088 52.7034C56.7581 52.9325 60.9396 52.2604 64.1662 50.405C65.0315 49.9074 65.7067 49.3321 66.4872 48.7578Z" fill="#FEFEFE"/>
<path d="M50.5337 55.1795C50.6028 55.1658 50.6588 55.1615 50.7306 55.1714C50.891 55.1934 51.0181 55.2528 51.1056 55.3697C51.1731 55.4598 51.2179 55.6489 51.1679 55.7527C51.0337 56.0309 50.253 56.2379 49.945 56.3426C49.874 56.3437 49.7942 56.3487 49.7241 56.3334C49.5807 56.302 49.4471 56.1814 49.3945 56.0676C49.3283 55.9245 49.3609 55.8181 49.4225 55.6805C49.6965 55.4461 50.1651 55.2869 50.5337 55.1795Z" fill="#231F20"/>
<path d="M46.1005 53.2927C46.1425 53.2917 46.1811 53.2893 46.2235 53.2965C46.3854 53.3242 46.4856 53.3798 46.5636 53.505C46.6519 53.6465 46.6429 53.7317 46.6026 53.8815C46.3177 54.2017 45.6499 54.4011 45.2085 54.5211L44.9025 54.5111C44.7565 54.4895 44.6563 54.4298 44.5793 54.322C44.4803 54.1834 44.5118 54.0502 44.559 53.9042C44.8277 53.635 45.6913 53.3846 46.1005 53.2927Z" fill="#231F20"/>
<path d="M48.0395 54.2686C48.1062 54.258 48.1489 54.2589 48.2138 54.2769C48.389 54.3256 48.5023 54.4043 48.5757 54.5531C48.6233 54.6493 48.6317 54.7681 48.5708 54.8621C48.4021 55.1222 47.2953 55.5276 46.9497 55.6076C46.8616 55.5991 46.7623 55.5908 46.6803 55.561C46.506 55.4973 46.4198 55.3635 46.3476 55.2251C46.3494 55.1432 46.3456 55.0588 46.3992 54.986C46.5976 54.7162 47.665 54.3801 48.0395 54.2686Z" fill="#231F20"/>
<path d="M34.3496 27.3931C35.1608 28.0265 35.9579 28.6691 36.8246 29.2489C41.5991 32.4433 47.3574 34.4428 53.4494 34.7455C61.4928 35.145 69.5983 32.1972 75.5532 27.7352C74.9227 29.0649 74.1001 30.3039 73.1445 31.4842C72.4836 32.2484 71.8294 32.9961 71.0767 33.6987C68.6019 36.0087 65.3623 37.9983 61.9107 39.1171C60.4742 39.5827 58.9787 39.9676 57.4548 40.1634C53.6718 40.6497 49.5375 40.2696 46.0405 38.9418C44.34 38.2961 42.7879 37.3474 41.404 36.2984C40.1482 35.3468 38.9814 34.3134 37.9718 33.1693C36.4268 31.4188 35.2587 29.429 34.3496 27.3931Z" fill="#FEFEFE"/>
<path d="M49.2429 36.4598C49.4111 36.4325 49.511 36.4508 49.6702 36.4896C49.7506 36.5442 49.8244 36.5868 49.8678 36.6684C49.9429 36.8097 49.9251 36.9505 49.8527 37.0908C49.7606 37.2691 49.0616 37.6361 48.8352 37.7177C48.7624 37.7305 48.7006 37.7398 48.6247 37.7351C48.4785 37.7259 48.3152 37.61 48.2441 37.5073C48.1652 37.3934 48.1562 37.242 48.2172 37.1202C48.3444 36.8656 48.9493 36.5823 49.2429 36.4598Z" fill="#231F20"/>
<path d="M47.2181 35.3212L47.3806 35.3047C47.5881 35.3689 47.6721 35.4434 47.8116 35.586C47.8286 35.6646 47.8692 35.7571 47.8354 35.8338C47.7385 36.0538 47.4232 36.2013 47.2042 36.3296C46.8037 36.5641 46.4109 36.8243 45.98 37.0171C45.8778 37.0291 45.7586 37.0427 45.6567 37.0256C45.5343 37.005 45.4199 36.9329 45.3533 36.8454C45.28 36.7492 45.2755 36.5769 45.3232 36.469C45.4903 36.0907 46.7687 35.4786 47.2181 35.3212Z" fill="#231F20"/>
<path d="M45.1987 34.3193L45.2769 34.3159C45.4688 34.3197 45.6944 34.4066 45.7926 34.5518C45.8894 34.6951 45.8568 34.9203 45.8015 35.0718C45.5323 35.2803 45.1924 35.4209 44.8813 35.581C44.4002 35.8289 43.9265 36.0917 43.4154 36.2938L43.3119 36.2966C43.1686 36.2938 43.0488 36.2371 42.9535 36.1493C42.8024 36.0102 42.8144 35.8403 42.8171 35.6629C43.0683 35.3568 43.7148 35.1139 44.0914 34.9054C44.4408 34.7119 44.7974 34.4158 45.1987 34.3193Z" fill="#231F20"/>
</svg>
