<svg width="15" height="15" viewBox="0 0 18 13" fill="none" xmlns="http://www.w3.org/2000/svg">
<path d="M14.7495 0.210951C14.613 0.0837697 14.4325 0.0145315 14.246 0.0178226C14.0594 0.0211137 13.8815 0.0966772 13.7496 0.228594C13.6176 0.36051 13.5421 0.53848 13.5388 0.725009C13.5355 0.911538 13.6047 1.09206 13.7319 1.22855C14.4006 1.89714 14.931 2.69089 15.2928 3.56447C15.6547 4.43804 15.8409 5.37435 15.8409 6.31991C15.8409 7.26547 15.6547 8.20178 15.2928 9.07536C14.931 9.94894 14.4006 10.7427 13.7319 11.4113C13.6007 11.547 13.528 11.7288 13.5296 11.9176C13.5311 12.1064 13.6068 12.287 13.7402 12.4206C13.8736 12.5541 14.0542 12.63 14.243 12.6317C14.4318 12.6334 14.6137 12.5609 14.7495 12.4298C15.5518 11.6275 16.1883 10.6751 16.6225 9.6268C17.0567 8.57854 17.2801 7.45502 17.2801 6.32039C17.2801 5.18576 17.0567 4.06224 16.6225 3.01398C16.1883 1.96572 15.5518 1.01325 14.7495 0.210951ZM3.54919 1.22951C3.68426 1.09444 3.76015 0.911248 3.76015 0.720231C3.76015 0.529214 3.68426 0.34602 3.54919 0.210951C3.41413 0.0758811 3.23093 1.42319e-09 3.03991 0C2.8489 -1.42319e-09 2.6657 0.0758811 2.53063 0.210951C1.72833 1.01325 1.0919 1.96572 0.657691 3.01398C0.223484 4.06224 0 5.18576 0 6.32039C0 7.45502 0.223484 8.57854 0.657691 9.6268C1.0919 10.6751 1.72833 11.6275 2.53063 12.4298C2.59655 12.5006 2.67604 12.5573 2.76436 12.5967C2.85268 12.636 2.94802 12.6572 3.04469 12.6589C3.14137 12.6606 3.2374 12.6428 3.32705 12.6066C3.4167 12.5704 3.49814 12.5165 3.56651 12.4481C3.63488 12.3797 3.68878 12.2983 3.72499 12.2086C3.7612 12.119 3.77899 12.023 3.77728 11.9263C3.77558 11.8296 3.75442 11.7343 3.71506 11.646C3.67571 11.5576 3.61897 11.4781 3.54823 11.4122C2.8796 10.7436 2.3492 9.9499 1.98733 9.07632C1.62546 8.20274 1.43921 7.26643 1.43921 6.32087C1.43921 5.37531 1.62546 4.439 1.98733 3.56542C2.3492 2.69185 2.88056 1.8981 3.54919 1.22951Z" fill="black" fill-opacity="0.63"/>
<path d="M11.0158 2.9259C11.1508 2.79107 11.3338 2.71533 11.5246 2.71533C11.7154 2.71533 11.8984 2.79107 12.0334 2.9259C12.4792 3.37164 12.8329 3.90084 13.0742 4.48329C13.3155 5.06573 13.4397 5.69001 13.4397 6.32046C13.4397 6.95091 13.3155 7.57519 13.0742 8.15763C12.8329 8.74008 12.4792 9.26928 12.0334 9.71502C11.8975 9.84611 11.7156 9.9186 11.5268 9.91687C11.3381 9.91514 11.1575 9.83933 11.0241 9.70578C10.8907 9.57222 10.815 9.3916 10.8135 9.20281C10.8119 9.01403 10.8846 8.83219 11.0158 8.69646C11.3278 8.38445 11.5754 8.01403 11.7442 7.60635C11.9131 7.19868 12 6.76173 12 6.32046C12 5.87919 11.9131 5.44224 11.7442 5.03456C11.5754 4.62689 11.3278 4.25647 11.0158 3.94446C10.881 3.80946 10.8052 3.62646 10.8052 3.43566C10.8052 3.24486 10.881 3.0609 11.0158 2.9259ZM6.2638 2.9259C6.3307 2.99276 6.38378 3.07216 6.41999 3.15954C6.4562 3.24692 6.47484 3.34059 6.47484 3.43518C6.47484 3.52977 6.4562 3.62343 6.41999 3.71082C6.38378 3.7982 6.3307 3.87759 6.2638 3.94446C5.95175 4.25647 5.70423 4.62689 5.53535 5.03456C5.36647 5.44224 5.27955 5.87919 5.27955 6.32046C5.27955 6.76173 5.36647 7.19868 5.53535 7.60635C5.70423 8.01403 5.95175 8.38445 6.2638 8.69646C6.39098 8.83295 6.46021 9.01347 6.45692 9.2C6.45363 9.38653 6.37807 9.5645 6.24615 9.69641C6.11424 9.82833 5.93627 9.90389 5.74974 9.90719C5.56321 9.91048 5.38268 9.84124 5.2462 9.71406C4.34633 8.81393 3.84082 7.59325 3.84082 6.32046C3.84082 5.04767 4.34633 3.82699 5.2462 2.92686C5.3812 2.79203 5.56419 2.71629 5.755 2.71629C5.9458 2.71629 6.1288 2.79107 6.2638 2.9259ZM9.5998 6.32046C9.5998 6.57507 9.49865 6.81925 9.31862 6.99928C9.13858 7.17932 8.8944 7.28046 8.6398 7.28046C8.38519 7.28046 8.14101 7.17932 7.96097 6.99928C7.78094 6.81925 7.6798 6.57507 7.6798 6.32046C7.6798 6.06585 7.78094 5.82167 7.96097 5.64164C8.14101 5.4616 8.38519 5.36046 8.6398 5.36046C8.8944 5.36046 9.13858 5.4616 9.31862 5.64164C9.49865 5.82167 9.5998 6.06585 9.5998 6.32046Z" fill="black" fill-opacity="0.63"/>
</svg>
