<svg width="20" height="20" viewBox="0 0 20 20" fill="none" xmlns="http://www.w3.org/2000/svg">
<path d="M9.5999 16.7999C11.0239 16.7999 12.416 16.3776 13.6 15.5865C14.784 14.7953 15.7069 13.6709 16.2518 12.3552C16.7968 11.0396 16.9394 9.59192 16.6616 8.19526C16.3837 6.79859 15.698 5.51567 14.6911 4.50874C13.6841 3.5018 12.4012 2.81607 11.0046 2.53825C9.60789 2.26044 8.16021 2.40302 6.84458 2.94797C5.52895 3.49292 4.40447 4.41577 3.61332 5.5998C2.82218 6.78383 2.3999 8.17588 2.3999 9.59991C2.3999 10.7903 2.6879 11.9119 3.1999 12.9015L2.3999 16.7999L6.2983 15.9999C7.2871 16.5111 8.4103 16.7999 9.5999 16.7999Z" stroke="black" stroke-width="0.8" stroke-linecap="round" stroke-linejoin="round"/>
</svg>
