<svg width="15" height="15" viewBox="0 0 22 22" fill="none" xmlns="http://www.w3.org/2000/svg">
<path fill-rule="evenodd" clip-rule="evenodd" d="M10.8388 1.5C5.72135 1.5 1.57289 5.64137 1.57289 10.75C1.57289 15.8586 5.72135 20 10.8388 20C12.4619 20 13.9854 19.584 15.3105 18.8536C15.6141 18.6863 15.9831 18.6437 16.3288 18.7606L20.1364 20.0486L18.8736 16.191C18.7621 15.8506 18.8052 15.4891 18.9692 15.1907C19.6928 13.8733 20.1046 12.3608 20.1046 10.75C20.1046 5.64137 15.9561 1.5 10.8388 1.5ZM0.0703125 10.75C0.0703125 4.81294 4.89151 0 10.8388 0C16.786 0 21.6072 4.81294 21.6072 10.75C21.6072 12.5837 21.1467 14.3121 20.3343 15.8243L21.72 20.0573C22.0404 21.0359 21.1047 21.9599 20.128 21.6295L15.9475 20.2154C14.4267 21.035 12.686 21.5 10.8388 21.5C4.89151 21.5 0.0703125 16.6871 0.0703125 10.75Z" fill="#262626"/>
</svg>
