<svg width="15" height="15" viewBox="0 0 24 21" fill="none" xmlns="http://www.w3.org/2000/svg">
<path fill-rule="evenodd" clip-rule="evenodd" d="M11.8929 2.65511L11.2367 1.88951C8.59614 -0.746533 4.38512 -0.5669 1.74455 2.06914C-0.896005 4.70518 -0.387823 9.80151 2.25274 12.4375C3.32443 13.5074 4.92936 14.9887 7.06752 16.8815L8.86633 18.4612L10.8867 20.212C11.443 20.6913 12.2649 20.6986 12.8297 20.2293L14.4664 18.8594C17.3326 16.4413 19.4595 14.5366 20.8472 13.1454L21.2073 12.7788L21.5307 12.4375C23.9899 9.79014 24.6219 4.64387 22.0428 2.06914L21.8559 1.88951C19.204 -0.565474 15.205 -0.685229 12.6258 1.88951L11.8929 2.65511ZM2.80754 3.12974C4.89554 1.04531 8.12579 0.94759 10.1359 2.91177L11.8318 4.89042L13.7126 2.92582C15.6418 1.00049 18.7164 1.02833 20.8347 2.98933L21.001 3.14952C22.8235 4.96931 22.5135 9.17406 20.4295 11.4176L20.1164 11.7477L19.7691 12.1012C18.6188 13.2536 16.914 14.7977 14.6661 16.7207L13.497 17.7137L11.869 19.0764L9.85179 17.3284L8.40809 16.0624C6.3738 14.2675 4.80448 12.8319 3.7057 11.7612L3.31572 11.3768C1.14046 9.20529 0.868387 5.06557 2.80754 3.12974Z" fill="#262626"/>
</svg>
