<svg width="20" height="20" viewBox="0 0 20 20" fill="none" xmlns="http://www.w3.org/2000/svg">
<path d="M13.35 3.30005C11.742 3.30005 10.356 4.0643 9.6 5.3303C8.844 4.0643 7.458 3.30005 5.85 3.30005C4.69673 3.30144 3.5911 3.76019 2.77562 4.57567C1.96014 5.39115 1.50139 6.49678 1.5 7.65005C1.5 9.7943 2.85 12.0353 5.505 14.3093C6.73088 15.3525 8.05451 16.275 9.4575 17.064C9.50128 17.0877 9.55025 17.1001 9.6 17.1001C9.64975 17.1001 9.69872 17.0877 9.7425 17.064C11.1455 16.275 12.4691 15.3525 13.695 14.3093C16.35 12.0353 17.7 9.7943 17.7 7.65005C17.6986 6.49678 17.2399 5.39115 16.4244 4.57567C15.6089 3.76019 14.5033 3.30144 13.35 3.30005ZM9.6 16.4565C8.55 15.8565 2.1 12.0053 2.1 7.65005C2.10119 6.65585 2.49666 5.70272 3.19966 4.99971C3.90267 4.29671 4.8558 3.90124 5.85 3.90005C7.43325 3.90005 8.76375 4.7483 9.3225 6.1133C9.3451 6.16832 9.38355 6.21538 9.43296 6.2485C9.48237 6.28163 9.54052 6.29931 9.6 6.29931C9.65948 6.29931 9.71763 6.28163 9.76704 6.2485C9.81645 6.21538 9.8549 6.16832 9.8775 6.1133C10.4362 4.7483 11.7668 3.90005 13.35 3.90005C14.3442 3.90124 15.2973 4.29671 16.0003 4.99971C16.7033 5.70272 17.0988 6.65585 17.1 7.65005C17.1 12 10.65 15.8595 9.6 16.4565Z" fill="black"/>
</svg>
