<svg width="696" height="559" viewBox="0 0 696 559" fill="none" xmlns="http://www.w3.org/2000/svg">
<path d="M519.206 326.703C519.193 362.335 509.274 397.262 490.558 427.582C471.841 457.902 445.064 482.422 413.216 498.403C411.586 499.223 409.94 500.02 408.276 500.793C365.29 520.742 316.461 524.156 271.116 510.383C266.666 509.023 262.286 507.51 257.976 505.843C218.562 490.596 185.277 462.775 163.279 426.691C141.281 390.607 131.8 348.275 136.303 306.255C140.806 264.235 159.043 224.874 188.187 194.271C217.332 163.668 255.756 143.532 297.506 136.983C307.333 135.463 317.263 134.7 327.206 134.703C433.246 134.703 519.206 220.663 519.206 326.703Z" fill="#F7F7F5"/>
<path d="M533.134 354.068C561.756 322.991 576.484 276.464 561.052 237.135C538.315 277.059 502.189 307.654 459.065 323.507C442.412 329.56 423.26 334.559 414.214 349.795C408.585 359.275 408.186 371.142 410.737 381.867C413.288 392.594 418.528 402.457 423.716 412.186L423.749 414.938C464.283 403.024 504.511 385.144 533.134 354.068Z" fill="#E6E6E6"/>
<path d="M560.19 237.344C555.331 271.975 539.684 304.195 515.471 329.427C510.251 334.801 504.488 339.798 497.826 343.305C491.306 346.673 484.003 348.234 476.676 347.825C469.836 347.581 462.868 346.54 456.089 347.963C448.943 349.463 443.288 354.077 439.62 360.301C435.132 367.916 433.648 376.69 432.494 385.321C431.214 394.903 430.036 404.877 424.564 413.124C423.901 414.124 425.49 415.094 426.152 414.096C435.673 399.747 432.464 381.424 438.883 365.954C441.878 358.735 447.066 352.375 454.83 350.188C461.619 348.276 468.805 349.344 475.728 349.65C482.998 349.973 489.917 349.079 496.573 346.001C503.381 342.852 509.352 338.07 514.687 332.853C526.696 320.932 536.756 307.198 544.498 292.152C553.43 275.03 559.367 256.506 562.052 237.381C562.218 236.198 560.355 236.168 560.19 237.344Z" fill="#F7F7F5"/>
<path d="M523.746 321.761C528.531 325.249 534.4 326.922 540.305 326.482C546.209 326.042 551.765 323.518 555.981 319.36C556.831 318.515 555.558 317.155 554.707 318C550.789 321.88 545.614 324.231 540.114 324.629C534.615 325.027 529.154 323.447 524.718 320.173C523.753 319.462 522.787 321.055 523.746 321.761Z" fill="#F7F7F5"/>
<path d="M480.128 348.406C478.146 336.465 480.737 324.216 487.385 314.101C488.045 313.1 486.456 312.129 485.797 313.13C478.898 323.668 476.228 336.42 478.317 348.841C478.517 350.025 480.327 349.583 480.128 348.406Z" fill="#F7F7F5"/>
<path d="M550.968 274.852C548.835 273.888 546.975 272.41 545.555 270.549C544.135 268.689 543.199 266.506 542.832 264.195C542.647 263.009 540.838 263.452 541.021 264.63C541.439 267.182 542.476 269.592 544.04 271.651C545.605 273.71 547.649 275.354 549.996 276.44C550.208 276.561 550.459 276.596 550.697 276.539C550.935 276.482 551.142 276.336 551.276 276.132C551.404 275.921 551.443 275.668 551.385 275.428C551.327 275.189 551.177 274.981 550.968 274.852Z" fill="#F7F7F5"/>
<path d="M425.135 192.533C425.229 193.277 425.324 194.021 425.407 194.775C426.624 204.78 427.027 214.867 426.61 224.936C426.59 225.715 426.559 226.505 426.516 227.282C425.255 251.531 419.502 275.336 409.551 297.486C405.583 306.296 400.95 314.792 395.693 322.899C388.433 334.095 379.669 345.657 376.621 358.228C376.288 359.536 376.037 360.864 375.868 362.203L420.389 414.763C420.55 414.832 420.699 414.911 420.861 414.981L422.543 417.161C422.843 416.761 423.146 416.341 423.446 415.942C423.621 415.711 423.787 415.468 423.962 415.237C424.075 415.08 424.189 414.922 424.3 414.786C424.338 414.734 424.376 414.681 424.402 414.638C424.513 414.503 424.603 414.365 424.702 414.239C426.402 411.894 428.088 409.532 429.76 407.154C429.772 407.144 429.773 407.144 429.775 407.122C442.473 388.972 453.767 369.602 461.763 349.134C462.003 348.518 462.256 347.893 462.476 347.253C466.029 338.007 468.82 328.486 470.822 318.785C471.901 313.47 472.71 308.103 473.246 302.706C474.605 288.757 473.762 274.682 470.747 260.996C464.732 233.714 450.059 208.659 426.915 193.662C426.322 193.278 425.739 192.906 425.135 192.533Z" fill="#E6E6E6"/>
<path d="M424.568 193.216C441.539 223.793 448.444 258.939 444.303 293.663C443.37 301.097 441.778 308.557 438.57 315.368C435.392 321.983 430.5 327.626 424.404 331.711C418.796 335.634 412.606 338.998 408.049 344.216C403.246 349.716 401.51 356.804 402.328 363.982C403.33 372.765 407.427 380.664 411.703 388.249C416.45 396.671 421.514 405.344 422.11 415.224C422.182 416.421 424.035 416.239 423.963 415.043C422.926 397.854 409.332 385.156 405.143 368.939C403.188 361.372 403.501 353.17 408.384 346.75C412.653 341.136 419.034 337.662 424.746 333.739C430.744 329.62 435.732 324.74 439.193 318.275C442.733 311.662 444.621 304.248 445.739 296.871C448.151 280.123 447.914 263.1 445.037 246.425C441.86 227.377 435.448 209.012 426.077 192.125C425.497 191.08 423.991 192.178 424.568 193.216Z" fill="#F7F7F5"/>
<path d="M446.295 282.561C452.215 282.465 457.908 280.268 462.358 276.361C466.808 272.455 469.724 267.094 470.586 261.236C470.756 260.05 468.922 259.73 468.751 260.917C467.958 266.374 465.241 271.367 461.09 274.996C456.939 278.625 451.628 280.651 446.114 280.708C444.916 280.722 445.103 282.575 446.295 282.561Z" fill="#F7F7F5"/>
<path d="M427.51 330.097C418.738 321.756 413.432 310.416 412.651 298.337C412.574 297.141 410.721 297.322 410.797 298.518C411.634 311.085 417.18 322.875 426.326 331.535C427.199 332.36 428.377 330.917 427.51 330.097Z" fill="#F7F7F5"/>
<path d="M439.787 228.717C437.504 229.231 435.129 229.171 432.875 228.54C430.621 227.91 428.559 226.73 426.874 225.106C426.013 224.271 424.835 225.714 425.691 226.544C427.561 228.33 429.84 229.63 432.329 230.332C434.817 231.034 437.44 231.116 439.967 230.57C440.209 230.539 440.431 230.416 440.586 230.227C440.742 230.038 440.819 229.797 440.803 229.553C440.778 229.308 440.658 229.083 440.467 228.926C440.277 228.769 440.032 228.694 439.787 228.717Z" fill="#F7F7F5"/>
<path d="M141.419 404.822C118.583 380.028 106.833 342.908 119.145 311.529C137.286 343.382 166.109 367.792 200.514 380.44C213.8 385.269 229.081 389.258 236.298 401.414C240.789 408.977 241.107 418.445 239.072 427.002C237.037 435.56 232.856 443.429 228.716 451.191L228.691 453.387C196.351 443.882 164.255 429.616 141.419 404.822Z" fill="#E6E6E6"/>
<path d="M119.833 311.697C123.709 339.327 136.193 365.033 155.511 385.164C159.593 389.572 164.344 393.308 169.589 396.236C174.791 398.924 180.617 400.169 186.463 399.843C191.92 399.648 197.479 398.817 202.888 399.953C205.648 400.575 208.246 401.774 210.51 403.47C212.775 405.166 214.655 407.322 216.028 409.797C219.608 415.872 220.792 422.872 221.713 429.758C222.734 437.403 223.674 445.361 228.04 451.941C228.569 452.738 227.301 453.512 226.773 452.716C219.177 441.268 221.736 426.649 216.616 414.306C214.226 408.547 210.087 403.473 203.893 401.728C198.476 400.202 192.743 401.054 187.219 401.299C181.521 401.701 175.811 400.701 170.588 398.388C165.211 395.736 160.324 392.189 156.137 387.897C146.555 378.387 138.529 367.429 132.352 355.425C125.226 341.764 120.489 326.985 118.347 311.727C118.215 310.783 119.701 310.759 119.833 311.697Z" fill="#F7F7F5"/>
<path d="M148.909 379.048C145.091 381.831 140.409 383.166 135.698 382.815C130.987 382.464 126.554 380.45 123.191 377.132C122.513 376.459 123.528 375.373 124.207 376.048C127.333 379.143 131.462 381.019 135.85 381.337C140.237 381.654 144.594 380.393 148.134 377.781C148.903 377.214 149.674 378.485 148.909 379.048Z" fill="#F7F7F5"/>
<path d="M183.71 400.306C185.291 390.78 183.223 381.007 177.919 372.937C177.393 372.138 178.661 371.364 179.186 372.162C184.69 380.57 186.821 390.744 185.154 400.654C184.994 401.598 183.551 401.245 183.71 400.306Z" fill="#F7F7F5"/>
<path d="M127.191 341.622C128.892 340.853 130.376 339.674 131.509 338.19C132.642 336.706 133.389 334.964 133.682 333.12C133.83 332.174 135.273 332.528 135.126 333.468C134.793 335.503 133.966 337.426 132.718 339.069C131.47 340.711 129.838 342.023 127.966 342.89C127.797 342.986 127.597 343.014 127.407 342.969C127.217 342.923 127.052 342.807 126.945 342.644C126.843 342.475 126.812 342.274 126.858 342.082C126.904 341.891 127.024 341.726 127.191 341.622Z" fill="#F7F7F5"/>
<path d="M227.584 275.945C227.509 276.539 227.434 277.132 227.367 277.734C226.396 285.716 226.075 293.764 226.407 301.798C226.423 302.419 226.448 303.049 226.482 303.669C227.489 323.016 232.078 342.008 240.018 359.68C243.184 366.709 246.88 373.487 251.074 379.956C256.867 388.888 263.858 398.113 266.29 408.142C266.556 409.186 266.756 410.245 266.891 411.313L231.371 453.248C231.243 453.303 231.123 453.366 230.994 453.421L229.653 455.161C229.413 454.842 229.171 454.507 228.932 454.188C228.792 454.004 228.66 453.81 228.52 453.626C228.43 453.501 228.339 453.374 228.25 453.266C228.22 453.224 228.19 453.182 228.169 453.148C228.08 453.04 228.009 452.93 227.93 452.83C226.574 450.958 225.228 449.074 223.894 447.177C223.884 447.169 223.884 447.169 223.883 447.151C213.752 432.671 204.74 417.217 198.361 400.887C198.17 400.395 197.968 399.896 197.792 399.386C194.958 392.009 192.731 384.413 191.134 376.673C190.273 372.432 189.628 368.151 189.2 363.845C188.116 352.716 188.788 341.487 191.194 330.567C195.992 308.801 207.699 288.811 226.165 276.846C226.637 276.54 227.102 276.243 227.584 275.945Z" fill="#E6E6E6"/>
<path d="M228.037 276.491C214.497 300.885 208.987 328.926 212.291 356.631C212.897 362.607 214.44 368.451 216.866 373.947C219.401 379.225 223.304 383.727 228.167 386.986C232.642 390.116 237.58 392.8 241.216 396.963C243.045 399.122 244.397 401.642 245.184 404.36C245.97 407.078 246.174 409.932 245.78 412.734C244.981 419.741 241.712 426.043 238.301 432.095C234.514 438.814 230.474 445.733 229.998 453.616C229.94 454.571 228.462 454.425 228.519 453.472C229.347 439.758 240.192 429.627 243.535 416.688C245.094 410.651 244.844 404.107 240.949 398.985C237.543 394.506 232.452 391.734 227.894 388.604C223.103 385.494 219.146 381.258 216.369 376.267C213.671 370.912 211.905 365.137 211.145 359.19C209.221 345.828 209.41 332.246 211.705 318.942C214.24 303.745 219.357 289.093 226.832 275.62C227.295 274.786 228.497 275.662 228.037 276.491Z" fill="#F7F7F5"/>
<path d="M210.702 347.772C205.979 347.695 201.437 345.942 197.886 342.826C194.336 339.709 192.01 335.432 191.322 330.758C191.186 329.812 192.65 329.556 192.786 330.504C193.418 334.857 195.586 338.841 198.898 341.736C202.21 344.632 206.447 346.248 210.846 346.293C211.802 346.304 211.653 347.783 210.702 347.772Z" fill="#F7F7F5"/>
<path d="M225.69 385.698C232.688 379.043 236.921 369.996 237.545 360.359C237.606 359.404 239.084 359.549 239.023 360.503C238.356 370.53 233.932 379.936 226.634 386.845C225.938 387.503 224.998 386.352 225.69 385.698Z" fill="#F7F7F5"/>
<path d="M215.895 304.814C217.716 305.224 219.611 305.176 221.409 304.673C223.207 304.17 224.852 303.229 226.197 301.933C226.884 301.267 227.823 302.418 227.141 303.08C225.649 304.505 223.831 305.543 221.845 306.103C219.86 306.663 217.767 306.728 215.751 306.293C215.558 306.267 215.381 306.17 215.257 306.019C215.133 305.868 215.071 305.676 215.084 305.481C215.104 305.286 215.2 305.106 215.352 304.981C215.504 304.856 215.699 304.796 215.895 304.814Z" fill="#F7F7F5"/>
<path d="M45.8905 302.112C38.7413 306.965 30.7945 312.425 28.4906 321.283C27.961 323.175 27.8194 325.154 28.0745 327.102C28.3296 329.05 28.9761 330.926 29.975 332.618C31.8095 335.676 34.5429 338.079 37.2091 340.394C40.3764 343.144 43.5688 345.848 46.0263 349.282C47.1516 350.855 44.5509 352.355 43.4359 350.796C38.88 344.429 31.3089 340.823 27.2993 333.99C22.5575 325.909 25.7219 316.326 31.5984 309.784C35.2657 305.702 39.8642 302.584 44.3764 299.521C45.978 298.434 47.4807 301.032 45.8905 302.112Z" fill="#E6E7E8"/>
<path d="M20.8904 302.112C13.7411 306.965 5.79436 312.425 3.49046 321.283C2.96081 323.175 2.81926 325.154 3.07435 327.102C3.32944 329.05 3.97591 330.926 4.97483 332.618C6.80943 335.676 9.54271 338.079 12.2088 340.394C15.3762 343.144 18.5686 345.848 21.026 349.282C22.1514 350.855 19.5506 352.355 18.4356 350.796C13.8797 344.429 6.30862 340.823 2.29914 333.99C-2.4428 325.909 0.721635 316.326 6.59822 309.784C10.2655 305.702 14.864 302.584 19.3762 299.521C20.9779 298.434 22.4805 301.032 20.8904 302.112Z" fill="#E6E7E8"/>
<path d="M296.659 198.258C309.544 198.258 319.989 187.813 319.989 174.928C319.989 162.043 309.544 151.598 296.659 151.598C283.774 151.598 273.329 162.043 273.329 174.928C273.329 187.813 283.774 198.258 296.659 198.258Z" fill="#2F2E41"/>
<path d="M333.988 286.914C366.63 286.914 393.091 260.453 393.091 227.811C393.091 195.169 366.63 168.707 333.988 168.707C301.346 168.707 274.884 195.169 274.884 227.811C274.884 260.453 301.346 286.914 333.988 286.914Z" fill="#2F2E41"/>
<path d="M338.879 286.9C365.404 286.9 386.907 265.397 386.907 238.871C386.907 212.346 365.404 190.843 338.879 190.843C312.353 190.843 290.85 212.346 290.85 238.871C290.85 265.397 312.353 286.9 338.879 286.9Z" fill="#9E616A"/>
<path d="M371.495 189.913C363.079 184.782 353.439 182.007 343.583 181.877C333.727 181.747 324.017 184.267 315.469 189.174C306.92 194.081 299.847 201.195 294.989 209.771C290.131 218.348 287.666 228.072 287.852 237.927C312.325 244.071 338.036 248.773 364.134 239.396L370.298 224.312L373.931 239.407C381.879 242.656 389.848 245.405 397.816 239.376C398.142 229.549 395.882 219.808 391.263 211.128C386.644 202.448 379.827 195.133 371.495 189.913Z" fill="#2F2E41"/>
<path d="M247.4 327.703H247.336C244.173 327.734 241.074 326.805 238.448 325.04C235.822 323.275 233.793 320.756 232.627 317.814C231.373 314.836 231.051 311.547 231.703 308.381C232.355 305.216 233.95 302.322 236.279 300.081L236.548 299.813C245.639 290.659 250.76 278.294 250.806 265.393C250.817 247.174 240.618 230.336 231.058 215.983L229.296 213.344C219.768 199.091 209.916 184.353 207.408 167.375C204.745 149.344 211.573 130.312 224.802 118.889C238.534 107.033 259.235 103.846 275.145 111.14C291.636 118.701 302.244 137.537 299.82 154.954L299.795 155.134L294 160.347L293.787 160.331C280.065 159.273 266.397 168.314 261.98 181.342C259.007 190.111 260.076 199.721 261.674 208.799C265.061 228.025 270.757 246.773 278.636 264.635C279.036 265.542 279.441 266.453 279.851 267.367C284.444 277.651 289.194 288.285 287.374 299.3C284.5 316.707 266.024 326.893 250.099 327.64C249.197 327.683 248.297 327.704 247.4 327.703Z" fill="#2F2E41"/>
<path d="M456.336 468.803C443.376 480.585 428.869 490.543 413.216 498.403L409.906 487.743L407.236 498.133L408.276 500.793C407.126 501.333 405.966 501.853 404.806 502.363C403.816 502.803 402.826 503.233 401.836 503.653C365.583 518.883 325.54 522.665 287.076 514.493C286.066 514.283 285.066 514.063 284.066 513.833C279.696 512.833 275.376 511.673 271.116 510.383L277.076 488.223L271.776 461.433L257.976 505.843C242.312 499.779 227.512 491.683 213.956 481.763C218.196 454.353 223.166 421.453 226.236 398.683C227.346 390.363 228.206 383.403 228.686 378.543C229.075 373.989 229.967 369.491 231.346 365.133C232.023 363.026 232.89 360.984 233.936 359.033C234.156 358.603 234.396 358.193 234.636 357.793C234.866 357.403 235.106 357.033 235.356 356.673C241.496 347.523 249.376 348.083 249.376 348.083L272.896 343.493L280.246 342.053L283.236 341.473L286.896 340.753C289.692 340.208 292.342 339.082 294.676 337.449C297.01 335.817 298.976 333.713 300.446 331.273L310.436 314.683C312.553 311.176 315.675 308.386 319.396 306.673C319.846 306.473 320.306 306.283 320.766 306.103C322.798 305.342 324.938 304.913 327.106 304.833L341.246 304.283L346.966 304.053L354.776 303.753C356.619 303.68 358.463 303.861 360.256 304.293H360.266C360.896 304.443 361.496 304.613 362.106 304.823C366.831 306.418 370.806 309.692 373.276 314.023L380.256 326.263C381.827 329.016 384.017 331.365 386.654 333.124C389.291 334.882 392.301 336.002 395.446 336.393L398.126 336.723L401.136 337.103L408.746 338.053L422.646 339.793L422.676 340.323C425.336 340.533 432.916 342.093 437.996 352.923C438.336 353.633 438.656 354.393 438.966 355.183C440.745 359.985 441.879 365.003 442.336 370.103C442.366 370.323 442.386 370.543 442.406 370.763C444.106 388.093 450.696 432.283 456.336 468.803Z" fill="#2F2E41"/>
<path d="M343.085 514.123L342.136 518.553L339.206 517.923L340.078 513.86C342.827 501.039 344.069 487.941 343.778 474.832L340.096 309.093L340.026 306.113L339.986 304.303L341.506 304.273L342.986 304.243L343.136 311.123L346.779 475.13C347.069 488.227 345.83 501.314 343.085 514.123Z" fill="#FB773F"/>
<path d="M225.556 403.643L267.736 409.403L270.686 409.803L272.486 410.053L272.276 411.553L272.066 413.023L265.246 412.093L225.146 406.613L225.556 403.643Z" fill="#FB773F"/>
<path d="M351.436 307.043L346.966 304.053L341.506 304.273L341.246 304.283L340.026 306.113L340.096 309.093L343.136 311.123L346.986 313.693C347.423 313.987 347.913 314.191 348.429 314.295C348.945 314.399 349.476 314.4 349.992 314.299C350.509 314.197 351 313.995 351.438 313.703C351.876 313.411 352.252 313.036 352.544 312.598C352.837 312.161 353.041 311.67 353.143 311.154C353.246 310.638 353.246 310.107 353.143 309.591C353.04 309.075 352.836 308.584 352.543 308.147C352.25 307.709 351.874 307.334 351.436 307.043ZM350.876 311.483C350.656 311.811 350.343 312.067 349.977 312.217C349.611 312.368 349.209 312.407 348.821 312.329C348.433 312.251 348.077 312.06 347.798 311.78C347.519 311.5 347.329 311.143 347.252 310.755C347.175 310.367 347.215 309.965 347.367 309.6C347.518 309.235 347.775 308.922 348.104 308.703C348.433 308.483 348.819 308.366 349.215 308.366C349.611 308.366 349.997 308.483 350.326 308.703C350.767 308.999 351.072 309.458 351.175 309.979C351.278 310.5 351.17 311.041 350.876 311.483Z" fill="#FB773F"/>
<path d="M231.92 507.341C229.533 507.339 227.149 507.511 224.787 507.856L224.446 507.906C216.888 509.117 210.031 513.046 205.165 518.955C200.299 524.864 197.758 532.346 198.018 539.996L198.109 542.874C198.168 544.693 198.232 546.649 198.284 548.819C198.29 549.324 198.495 549.806 198.855 550.16C199.215 550.515 199.7 550.712 200.205 550.711H582.284C609.222 550.428 636.063 550.071 662.056 549.651C666.951 549.667 671.837 549.229 676.651 548.342C683.875 546.861 688.888 543.927 691.98 539.37C695.825 533.72 695.947 526.604 695.715 518.565C695.241 502.333 694.771 485.28 694.302 468.279C693.888 453.296 693.476 438.353 693.064 424.046C692.809 415.556 692.243 408.062 687.877 402.334C683.144 396.14 674.513 393 662.223 393C662.075 393 661.927 393 661.777 393.001C623.261 393.238 585.098 416.172 566.814 450.068C564.709 453.972 562.747 458.15 560.849 462.192C558.148 468.257 555.089 474.155 551.688 479.856C549.915 482.752 547.89 485.486 545.636 488.025C545.488 488.203 545.318 488.394 545.138 488.574C544.727 489.038 544.298 489.485 543.879 489.884C541.57 492.223 538.977 494.265 536.161 495.96L535.89 496.117C535.687 496.243 535.466 496.369 535.245 496.484C533.714 497.337 532.12 498.075 530.479 498.69C523.509 501.351 515.584 501.988 506.924 500.584C498.708 499.168 490.789 496.374 483.504 492.319C475.485 487.931 467.979 482.459 460.72 477.168C457.532 474.843 454.234 472.439 450.94 470.162C450.321 469.733 449.712 469.314 449.094 468.896C445.072 466.181 441.425 463.939 437.945 462.041C429.747 457.455 420.713 454.557 411.377 453.52C401.798 452.611 393.356 454.324 386.293 458.599C384.272 459.828 382.372 461.245 380.619 462.832C372.253 470.355 367.095 481.459 362.108 492.197C355.904 505.554 349.488 519.366 336.82 526.526C322.202 534.796 300.866 531.36 285.77 525.386C281.024 523.507 276.283 521.346 271.699 519.255C269.847 518.41 267.996 517.566 266.14 516.738C262.497 515.109 259.515 513.861 256.756 512.808L255.884 512.472C255.398 512.289 254.912 512.106 254.418 511.933C251.361 510.808 248.245 509.852 245.085 509.066L244.374 508.887C242.949 508.562 241.616 508.291 240.308 508.063L239.786 507.974C237.186 507.55 234.555 507.338 231.92 507.341Z" fill="#E6E6E6"/>
<path d="M343.535 99.001H27.846C26.2961 98.9991 24.8103 98.3826 23.7144 97.2867C22.6184 96.1907 22.0019 94.7049 22 93.155V14.846C22.0019 13.2961 22.6184 11.8102 23.7144 10.7143C24.8103 9.61836 26.2961 9.00185 27.846 9H343.535C345.085 9.00185 346.571 9.61836 347.667 10.7143C348.763 11.8102 349.379 13.2961 349.381 14.846V93.155C349.379 94.7049 348.763 96.1907 347.667 97.2867C346.571 98.3826 345.085 98.9991 343.535 99.001ZM27.846 11.339C26.916 11.34 26.0243 11.71 25.3666 12.3676C24.709 13.0253 24.3391 13.9169 24.338 14.847V93.156C24.3388 94.0861 24.7087 94.9779 25.3664 95.6356C26.0241 96.2933 26.9159 96.6632 27.846 96.664H343.535C344.465 96.6632 345.357 96.2933 346.015 95.6356C346.672 94.9779 347.042 94.0861 347.043 93.156V14.846C347.042 13.9159 346.672 13.024 346.015 12.3663C345.357 11.7086 344.465 11.3387 343.535 11.338L27.846 11.339Z" fill="#E6E6E6"/>
<path d="M131.897 35.1191C130.844 35.1191 129.835 35.5373 129.09 36.2817C128.346 37.026 127.928 38.0356 127.928 39.0882C127.928 40.1408 128.346 41.1503 129.09 41.8947C129.835 42.639 130.844 43.0572 131.897 43.0572H319.005C320.058 43.0572 321.067 42.639 321.811 41.8947C322.556 41.1503 322.974 40.1408 322.974 39.0882C322.974 38.0356 322.556 37.026 321.811 36.2817C321.067 35.5373 320.058 35.1191 319.005 35.1191H131.897Z" fill="#E6E6E6"/>
<path d="M131.897 58.9336C130.844 58.9336 129.835 59.3517 129.09 60.0961C128.346 60.8404 127.928 61.8499 127.928 62.9026C127.928 63.9552 128.346 64.9648 129.09 65.7091C129.835 66.4534 130.844 66.8716 131.897 66.8716H212.41C213.463 66.8716 214.472 66.4534 215.216 65.7091C215.961 64.9648 216.379 63.9552 216.379 62.9026C216.379 61.8499 215.961 60.8404 215.216 60.0961C214.472 59.3517 213.463 58.9336 212.41 58.9336H131.897Z" fill="#E6E6E6"/>
<path d="M77.1221 74.629C90.2742 74.629 100.936 63.9671 100.936 50.815C100.936 37.6629 90.2742 27.001 77.1221 27.001C63.97 27.001 53.3081 37.6629 53.3081 50.815C53.3081 63.9671 63.97 74.629 77.1221 74.629Z" fill="#E6E6E6"/>
<path d="M73.3791 64.0499C72.579 64.0511 71.8002 63.7921 71.1601 63.3119L71.1201 63.2819L62.7621 56.8879C61.9797 56.2885 61.4675 55.4029 61.3381 54.4258C61.2087 53.4488 61.4727 52.4603 62.0721 51.6779C62.6715 50.8955 63.5571 50.3833 64.5342 50.2539C65.5113 50.1245 66.4997 50.3885 67.2821 50.9879L72.6961 55.1389L85.4891 38.4489C86.0882 37.6676 86.9731 37.1562 87.9491 37.0271C88.9252 36.8981 89.9126 37.1621 90.6941 37.7609L90.6151 37.8709L90.6971 37.7609C91.4777 38.3608 91.9884 39.2459 92.1172 40.2219C92.246 41.1979 91.9824 42.1851 91.3841 42.9669L76.3371 62.6009C75.989 63.0529 75.5414 63.4186 75.0291 63.6697C74.5169 63.9209 73.9536 64.0506 73.3831 64.0489L73.3791 64.0499Z" fill="#FB773F"/>
</svg>
