<svg width="625" height="615" viewBox="0 0 625 615" fill="none" xmlns="http://www.w3.org/2000/svg">
<g clip-path="url(#clip0_816_10681)">
<path d="M384.615 228.903H239.615C237.493 228.903 235.458 228.06 233.958 226.56C232.458 225.06 231.615 223.025 231.615 220.903C231.615 218.782 232.458 216.747 233.958 215.246C235.458 213.746 237.493 212.903 239.615 212.903H384.615C386.737 212.903 388.772 213.746 390.272 215.246C391.772 216.747 392.615 218.782 392.615 220.903C392.615 223.025 391.772 225.06 390.272 226.56C388.772 228.06 386.737 228.903 384.615 228.903Z" fill="#FB773F"/>
<path d="M452.429 149.001H136.74C135.19 148.999 133.704 148.383 132.608 147.287C131.512 146.191 130.896 144.705 130.894 143.155V64.846C130.896 63.2961 131.512 61.8102 132.608 60.7143C133.704 59.6184 135.19 59.0019 136.74 59H452.429C453.979 59.0019 455.465 59.6184 456.561 60.7143C457.657 61.8102 458.273 63.2961 458.275 64.846V143.155C458.273 144.705 457.657 146.191 456.561 147.287C455.465 148.383 453.979 148.999 452.429 149.001ZM136.74 61.339C135.81 61.34 134.918 61.71 134.261 62.3676C133.603 63.0253 133.233 63.9169 133.232 64.847V143.156C133.233 144.086 133.603 144.978 134.26 145.636C134.918 146.293 135.81 146.663 136.74 146.664H452.429C453.359 146.663 454.251 146.293 454.909 145.636C455.566 144.978 455.936 144.086 455.937 143.156V64.846C455.936 63.9159 455.566 63.024 454.909 62.3663C454.251 61.7086 453.359 61.3387 452.429 61.338L136.74 61.339Z" fill="#E6E6E6"/>
<path d="M240.791 85.1191C239.738 85.1191 238.729 85.5373 237.984 86.2817C237.24 87.026 236.822 88.0356 236.822 89.0882C236.822 90.1408 237.24 91.1503 237.984 91.8947C238.729 92.639 239.738 93.0572 240.791 93.0572H427.899C428.952 93.0572 429.961 92.639 430.705 91.8947C431.45 91.1503 431.868 90.1408 431.868 89.0882C431.868 88.0356 431.45 87.026 430.705 86.2817C429.961 85.5373 428.952 85.1191 427.899 85.1191H240.791Z" fill="#E6E6E6"/>
<path d="M240.791 108.934C239.738 108.934 238.729 109.352 237.984 110.096C237.24 110.84 236.822 111.85 236.822 112.903C236.822 113.955 237.24 114.965 237.984 115.709C238.729 116.453 239.738 116.872 240.791 116.872H321.304C322.357 116.872 323.366 116.453 324.11 115.709C324.855 114.965 325.273 113.955 325.273 112.903C325.273 111.85 324.855 110.84 324.11 110.096C323.366 109.352 322.357 108.934 321.304 108.934H240.791Z" fill="#E6E6E6"/>
<path d="M186.016 124.629C199.168 124.629 209.83 113.967 209.83 100.815C209.83 87.6629 199.168 77.001 186.016 77.001C172.864 77.001 162.202 87.6629 162.202 100.815C162.202 113.967 172.864 124.629 186.016 124.629Z" fill="#E6E6E6"/>
<path d="M182.273 114.05C181.473 114.051 180.694 113.792 180.054 113.312L180.014 113.282L171.656 106.888C170.874 106.289 170.361 105.403 170.232 104.426C170.103 103.449 170.367 102.46 170.966 101.678C171.565 100.896 172.451 100.383 173.428 100.254C174.405 100.125 175.394 100.389 176.176 100.988L181.59 105.139L194.383 88.4489C194.982 87.6676 195.867 87.1562 196.843 87.0271C197.819 86.8981 198.806 87.1621 199.588 87.7609L199.509 87.8709L199.591 87.7609C200.372 88.3608 200.882 89.2459 201.011 90.2219C201.14 91.1979 200.876 92.1851 200.278 92.9669L185.231 112.601C184.883 113.053 184.435 113.419 183.923 113.67C183.411 113.921 182.847 114.051 182.277 114.049L182.273 114.05Z" fill="#FB773F"/>
</g>
<defs>
<clipPath id="clip0_816_10681">
<rect width="624.45" height="614.164" fill="white"/>
</clipPath>
</defs>
</svg>
