<svg width="625" height="615" viewBox="0 0 625 615" fill="none" xmlns="http://www.w3.org/2000/svg">
<g clip-path="url(#clip0_816_10681)">
<path d="M400.391 367.094C392.912 362.226 389.192 350.911 391.024 340.563C392.857 330.215 399.758 321.302 408.032 317.458C412.056 315.644 416.469 314.859 420.872 315.172C425.275 315.485 429.532 316.887 433.259 319.252C440.846 323.891 451.577 326.432 455.18 335.714C457.948 342.847 454.437 357.332 450.71 364.26C447.489 370.248 441.369 372.987 435.619 374.177C429.257 375.475 422.691 375.391 416.365 373.931C410.039 372.471 404.1 369.67 398.95 365.716L400.391 367.094Z" fill="#2F2E41"/>
<path d="M396.49 422.054L390.51 432.364L389.72 433.724L388.57 435.724H370.94L372.13 433.724L375.21 428.534L382.39 416.414L390.52 419.664L396.49 422.054Z" fill="#FFB8B8"/>
<path d="M369.62 435.724L366.4 433.724L366 433.474L386.21 396.644C387.079 395.05 388.256 393.644 389.672 392.507C391.088 391.371 392.715 390.527 394.46 390.024C396.662 389.368 398.995 389.282 401.24 389.774C402.55 390.05 403.811 390.522 404.98 391.174C405.461 391.438 405.926 391.731 406.37 392.054C408.079 393.252 409.483 394.834 410.47 396.674C411.644 398.827 412.225 401.254 412.151 403.706C412.077 406.157 411.352 408.545 410.05 410.624L402.26 423.074L395.6 433.724L394.35 435.724H369.62Z" fill="#2F2E41"/>
<path d="M421.544 380.165C435.109 380.165 446.105 369.169 446.105 355.604C446.105 342.039 435.109 331.043 421.544 331.043C407.979 331.043 396.983 342.039 396.983 355.604C396.983 369.169 407.979 380.165 421.544 380.165Z" fill="#FFB8B8"/>
<path d="M446.2 435.724H390.99L391.24 435.014C391.1 434.584 390.97 434.154 390.85 433.724C390.72 433.274 390.61 432.814 390.51 432.364C389.613 428.178 389.616 423.849 390.52 419.664C393.57 404.684 405.74 392.514 405.74 392.514C405.95 392.354 406.16 392.204 406.37 392.054C408.18 390.728 410.145 389.627 412.22 388.774C421.26 385.024 430.74 386.534 437.11 388.474C439.328 389.145 441.497 389.97 443.6 390.944C444.34 391.294 444.74 391.514 444.74 391.514L445.37 410.724L446.13 433.724L446.2 435.724Z" fill="#FB773F"/>
<path d="M471.74 433.724L467.52 412.264L463.26 390.624C463.083 389.731 462.639 388.912 461.987 388.274C461.336 387.637 460.507 387.212 459.61 387.054L450.69 385.514L442.39 384.084C441.589 383.94 440.765 384.018 440.005 384.308C439.245 384.599 438.58 385.092 438.08 385.734C437.456 386.512 437.114 387.478 437.11 388.474C437.11 389.09 437.236 389.699 437.48 390.264C441.81 400.364 441.89 416.354 440.79 433.724C440.74 434.384 440.7 435.054 440.65 435.724H472.14L471.74 433.724Z" fill="#2F2E41"/>
<path d="M412.22 388.774C412.037 388.046 411.675 387.375 411.168 386.822C410.66 386.269 410.024 385.85 409.314 385.604C408.605 385.359 407.846 385.293 407.105 385.413C406.364 385.533 405.665 385.836 405.07 386.294L401.24 389.774L385.56 404.054C385.071 404.492 384.688 405.036 384.44 405.644C382.67 409.874 379.22 418.224 375.21 428.534C374.56 430.214 373.89 431.944 373.2 433.724C372.96 434.384 372.7 435.054 372.44 435.724H398.28C398.49 435.054 398.7 434.384 398.91 433.724C400.06 430.094 401.18 426.534 402.26 423.074C405.42 413.024 408.27 403.894 410.47 396.674C411.08 394.674 411.637 392.827 412.14 391.134C412.375 390.368 412.403 389.554 412.22 388.774Z" fill="#2F2E41"/>
<path d="M477.54 435.725H479.21L478.98 435.165L478.37 433.725L468.96 411.395L467.52 412.265L455.96 419.255L461.89 433.725L462.71 435.725H472.14H477.54Z" fill="#FFB8B8"/>
<path d="M468 393.684C466.727 390.351 464.214 387.64 460.988 386.117C457.762 384.594 454.072 384.378 450.69 385.514C450.258 385.657 449.834 385.824 449.42 386.014C447.051 387.07 445.032 388.781 443.6 390.944C443.016 391.807 442.536 392.737 442.17 393.714C441.521 395.409 441.214 397.215 441.268 399.03C441.321 400.844 441.733 402.63 442.48 404.284L445.37 410.724L455.71 433.724L456.61 435.724H477.54L478.98 435.164L482.72 433.724L483.24 433.524L468 393.684Z" fill="#2F2E41"/>
<path d="M440.834 327.396C441.69 327.653 442.607 327.62 443.443 327.303C444.278 326.986 444.986 326.402 445.456 325.642C445.902 324.868 446.164 324.001 446.222 323.11C446.281 322.218 446.135 321.325 445.795 320.499C445.098 318.849 443.999 317.401 442.599 316.284C441.01 314.846 439.074 313.844 436.982 313.376C435.936 313.151 434.855 313.153 433.811 313.383C432.766 313.613 431.784 314.064 430.929 314.706C430.09 315.37 429.468 316.27 429.143 317.289C428.817 318.308 428.804 319.402 429.103 320.429C429.739 322.273 431.462 323.509 433.182 324.429C436.595 326.251 440.359 327.321 444.22 327.567L440.834 327.396Z" fill="#2F2E41"/>
<path d="M445.612 354.87C441.664 355.415 442.171 353.405 440.589 349.746C439.008 346.087 436.891 341.744 432.922 341.373C429.669 341.069 426.99 343.67 424.355 345.6C419.659 349.042 413.329 350.726 407.885 348.662C402.442 346.597 398.659 340.109 400.724 334.666C401.367 333.162 402.312 331.807 403.5 330.684C404.688 329.561 406.094 328.694 407.631 328.136C410.714 327.04 413.988 326.585 417.253 326.8C424.515 327.032 431.637 328.855 438.117 332.14C442.589 334.413 446.943 337.664 448.64 342.385C450.336 347.105 451.453 353.739 446.602 355.016L445.612 354.87Z" fill="#2F2E41"/>
<path d="M438.816 314.411C436.864 311.014 438.475 306.353 441.669 304.083C444.862 301.813 449.146 301.59 452.957 302.5C456.726 303.45 460.179 305.373 462.969 308.078C465.76 310.783 467.791 314.174 468.857 317.912C470.474 323.853 469.513 330.234 470.882 336.237C471.612 339.437 472.99 342.454 474.93 345.102C476.87 347.749 479.331 349.972 482.162 351.633C484.994 353.293 488.135 354.356 491.392 354.757C494.65 355.158 497.956 354.888 501.105 353.963C505.207 352.758 509.375 349.829 509.779 345.573C510.203 350.461 509.089 355.359 506.592 359.582C504.094 363.804 500.339 367.14 495.851 369.122C490.566 371.327 484.671 371.471 478.946 371.324C475.215 371.228 471.4 371.003 467.958 369.56C465.577 368.474 463.436 366.924 461.662 365C459.888 363.076 458.515 360.817 457.625 358.356C455.873 353.409 455.399 348.1 456.249 342.921C456.812 338.893 457.933 334.945 458.246 330.889C458.56 326.834 457.965 322.504 455.465 319.295C452.965 316.087 448.189 314.448 444.635 316.425C443.206 317.22 442.054 318.518 440.502 319.031C438.949 319.543 436.75 318.642 436.891 317.014L438.816 314.411Z" fill="#2F2E41"/>
<path d="M184.22 377.844L178.28 433.904L178.07 435.904H162C162.19 435.254 162.38 434.584 162.58 433.904C167.14 418.264 173.35 395.434 172.68 389.384C171.63 379.944 178.98 376.794 178.98 376.794L179.44 376.884L184.22 377.844Z" fill="#FB773F"/>
<path d="M210.136 360.54C223.701 360.54 234.698 349.544 234.698 335.979C234.698 322.414 223.701 311.418 210.136 311.418C196.572 311.418 185.575 322.414 185.575 335.979C185.575 349.544 196.572 360.54 210.136 360.54Z" fill="#A0616A"/>
<path d="M241.93 424.004C240.691 426.287 239.677 428.685 238.9 431.164C238.61 432.044 238.33 432.964 238.07 433.904C237.88 434.554 237.71 435.224 237.54 435.904H172.76C172.85 435.244 172.93 434.574 173.02 433.904C176.33 407.754 179.01 381.214 179.44 376.884C179.48 376.474 179.5 376.264 179.5 376.264C218.32 355.804 246.65 382.564 246.65 382.564C246.65 382.564 246.69 382.754 246.75 383.124C247.37 386.864 250.53 408.704 241.93 424.004Z" fill="#FB773F"/>
<path d="M238.9 431.164L234.58 421.904L235.63 385.184L246.75 383.124L247.14 383.054C252.888 386.395 257.336 391.583 259.76 397.774C261.92 403.174 266.03 419.414 269.5 433.904C269.66 434.574 269.82 435.244 269.98 435.904H241.11L240.18 433.904L238.9 431.164Z" fill="#FB773F"/>
<path d="M384.615 228.903H239.615C237.493 228.903 235.458 228.06 233.958 226.56C232.458 225.06 231.615 223.025 231.615 220.903C231.615 218.782 232.458 216.747 233.958 215.246C235.458 213.746 237.493 212.903 239.615 212.903H384.615C386.737 212.903 388.772 213.746 390.272 215.246C391.772 216.747 392.615 218.782 392.615 220.903C392.615 223.025 391.772 225.06 390.272 226.56C388.772 228.06 386.737 228.903 384.615 228.903Z" fill="#FB773F"/>
<path d="M221.884 357.377C222.716 358.197 223.816 358.69 224.982 358.765C226.147 358.839 227.301 358.491 228.23 357.784C234.019 353.493 239.101 348.152 242.108 341.637C245.554 334.172 245.939 325.012 241.784 317.917C238.271 311.919 232.069 308.049 225.888 304.871C223.488 303.516 220.903 302.52 218.214 301.913C215.497 301.314 212.653 301.772 210.263 303.196C209.093 303.929 208.171 304.998 207.618 306.263C207.065 307.528 206.906 308.93 207.162 310.287C204.193 306.899 200.39 304.346 196.13 302.881C193.448 301.832 190.51 301.619 187.705 302.271C183.782 303.383 180.919 306.868 179.352 310.633C178.086 313.496 177.648 316.658 178.09 319.758C178.322 321.3 178.876 322.777 179.715 324.092C180.554 325.407 181.66 326.531 182.96 327.392C186.204 329.399 190.341 329.254 194.065 328.434C197.79 327.615 201.395 326.189 205.192 325.828C208.989 325.468 213.216 326.414 215.527 329.448C217.154 331.585 217.572 334.377 217.937 337.038L219.837 350.877C219.992 352.879 220.504 354.837 221.347 356.659C221.493 356.922 221.674 357.163 221.884 357.377Z" fill="#2F2E41"/>
<path d="M452.429 149.001H136.74C135.19 148.999 133.704 148.383 132.608 147.287C131.512 146.191 130.896 144.705 130.894 143.155V64.846C130.896 63.2961 131.512 61.8102 132.608 60.7143C133.704 59.6184 135.19 59.0019 136.74 59H452.429C453.979 59.0019 455.465 59.6184 456.561 60.7143C457.657 61.8102 458.273 63.2961 458.275 64.846V143.155C458.273 144.705 457.657 146.191 456.561 147.287C455.465 148.383 453.979 148.999 452.429 149.001ZM136.74 61.339C135.81 61.34 134.918 61.71 134.261 62.3676C133.603 63.0253 133.233 63.9169 133.232 64.847V143.156C133.233 144.086 133.603 144.978 134.26 145.636C134.918 146.293 135.81 146.663 136.74 146.664H452.429C453.359 146.663 454.251 146.293 454.909 145.636C455.566 144.978 455.936 144.086 455.937 143.156V64.846C455.936 63.9159 455.566 63.024 454.909 62.3663C454.251 61.7086 453.359 61.3387 452.429 61.338L136.74 61.339Z" fill="#E6E6E6"/>
<path d="M240.791 85.1191C239.738 85.1191 238.729 85.5373 237.984 86.2817C237.24 87.026 236.822 88.0356 236.822 89.0882C236.822 90.1408 237.24 91.1503 237.984 91.8947C238.729 92.639 239.738 93.0572 240.791 93.0572H427.899C428.952 93.0572 429.961 92.639 430.705 91.8947C431.45 91.1503 431.868 90.1408 431.868 89.0882C431.868 88.0356 431.45 87.026 430.705 86.2817C429.961 85.5373 428.952 85.1191 427.899 85.1191H240.791Z" fill="#E6E6E6"/>
<path d="M240.791 108.934C239.738 108.934 238.729 109.352 237.984 110.096C237.24 110.84 236.822 111.85 236.822 112.903C236.822 113.955 237.24 114.965 237.984 115.709C238.729 116.453 239.738 116.872 240.791 116.872H321.304C322.357 116.872 323.366 116.453 324.11 115.709C324.855 114.965 325.273 113.955 325.273 112.903C325.273 111.85 324.855 110.84 324.11 110.096C323.366 109.352 322.357 108.934 321.304 108.934H240.791Z" fill="#E6E6E6"/>
<path d="M186.016 124.629C199.168 124.629 209.83 113.967 209.83 100.815C209.83 87.6629 199.168 77.001 186.016 77.001C172.864 77.001 162.202 87.6629 162.202 100.815C162.202 113.967 172.864 124.629 186.016 124.629Z" fill="#E6E6E6"/>
<path d="M182.273 114.05C181.473 114.051 180.694 113.792 180.054 113.312L180.014 113.282L171.656 106.888C170.874 106.289 170.361 105.403 170.232 104.426C170.103 103.449 170.367 102.46 170.966 101.678C171.565 100.896 172.451 100.383 173.428 100.254C174.405 100.125 175.394 100.389 176.176 100.988L181.59 105.139L194.383 88.4489C194.982 87.6676 195.867 87.1562 196.843 87.0271C197.819 86.8981 198.806 87.1621 199.588 87.7609L199.509 87.8709L199.591 87.7609C200.372 88.3608 200.882 89.2459 201.011 90.2219C201.14 91.1979 200.876 92.1851 200.278 92.9669L185.231 112.601C184.883 113.053 184.435 113.419 183.923 113.67C183.411 113.921 182.847 114.051 182.277 114.049L182.273 114.05Z" fill="#FB773F"/>
<path d="M503.51 287H361.49C358.444 287.004 355.524 288.215 353.37 290.369C351.215 292.523 350.004 295.444 350 298.49V440.51C350.004 443.556 351.215 446.477 353.37 448.631C355.524 450.785 358.444 451.996 361.49 452H503.51C506.557 451.998 509.478 450.787 511.633 448.632C513.787 446.478 514.998 443.557 515 440.51V298.49C514.998 295.443 513.787 292.522 511.633 290.368C509.478 288.213 506.557 287.002 503.51 287ZM513 440.51C512.998 443.026 511.997 445.439 510.218 447.218C508.439 448.997 506.026 449.998 503.51 450H361.49C358.974 449.996 356.563 448.995 354.784 447.216C353.005 445.437 352.004 443.026 352 440.51V298.49C352.004 295.974 353.005 293.563 354.784 291.784C356.563 290.005 358.974 289.004 361.49 289H503.51C506.026 289.002 508.439 290.003 510.218 291.782C511.997 293.561 512.998 295.974 513 298.49V440.51ZM387.72 450C387.84 450.43 387.97 450.86 388.11 451.29L387.86 452H437.52C437.57 451.33 437.61 450.66 437.66 450H387.72Z" fill="#3F3D56"/>
<path d="M281.51 287H139.49C136.444 287.004 133.524 288.215 131.37 290.369C129.215 292.523 128.004 295.444 128 298.49V440.51C128.004 443.556 129.215 446.477 131.37 448.631C133.524 450.785 136.444 451.996 139.49 452H281.51C284.557 451.998 287.478 450.787 289.633 448.632C291.787 446.478 292.998 443.557 293 440.51V298.49C292.998 295.443 291.787 292.522 289.633 290.368C287.478 288.213 284.557 287.002 281.51 287ZM291 440.51C290.998 443.026 289.997 445.439 288.218 447.218C286.439 448.997 284.026 449.998 281.51 450H139.49C136.974 449.996 134.563 448.995 132.784 447.216C131.005 445.437 130.004 443.026 130 440.51V298.49C130.004 295.974 131.005 293.563 132.784 291.784C134.563 290.005 136.974 289.004 139.49 289H281.51C284.026 289.002 286.439 290.003 288.218 291.782C289.997 293.561 290.998 295.974 291 298.49V440.51ZM181.38 450L181.17 452H240.64C240.81 451.32 240.98 450.65 241.17 450H181.38Z" fill="#3F3D56"/>
</g>
<defs>
<clipPath id="clip0_816_10681">
<rect width="624.45" height="614.164" fill="white"/>
</clipPath>
</defs>
</svg>
