<svg width="20" height="20" viewBox="0 0 20 20" fill="none" xmlns="http://www.w3.org/2000/svg">
<path d="M3.84667 16.6663C3.46278 16.6663 3.1425 16.538 2.88583 16.2813C2.62917 16.0247 2.50056 15.7041 2.5 15.3197V7.17968C2.5 6.79579 2.62861 6.47551 2.88583 6.21884C3.14306 5.96218 3.46306 5.83357 3.84583 5.83301H7.5V4.67884C7.5 4.29551 7.62861 3.97523 7.88583 3.71801C8.14306 3.46079 8.46333 3.33245 8.84667 3.33301H11.1542C11.5375 3.33301 11.8578 3.46134 12.115 3.71801C12.3722 3.97468 12.5006 4.29495 12.5 4.67884V5.83301H16.1542C16.5375 5.83301 16.8575 5.96162 17.1142 6.21884C17.3708 6.47607 17.4994 6.79634 17.5 7.17968V15.3205C17.5 15.7038 17.3714 16.0241 17.1142 16.2813C16.8569 16.5386 16.5369 16.6669 16.1542 16.6663H3.84667ZM3.84667 15.833H16.1542C16.2819 15.833 16.3994 15.7797 16.5067 15.673C16.6139 15.5663 16.6672 15.4486 16.6667 15.3197V7.17968C16.6667 7.05134 16.6133 6.93357 16.5067 6.82634C16.4 6.71912 16.2825 6.66579 16.1542 6.66634H3.84583C3.71806 6.66634 3.60056 6.71968 3.49333 6.82634C3.38611 6.93301 3.33278 7.05079 3.33333 7.17968V15.3205C3.33333 15.4483 3.38667 15.5658 3.49333 15.673C3.6 15.7802 3.7175 15.8336 3.84583 15.833M8.33333 5.83301H11.6667V4.67884C11.6667 4.55106 11.6133 4.43357 11.5067 4.32634C11.4 4.21912 11.2825 4.16579 11.1542 4.16634H8.84583C8.71806 4.16634 8.60056 4.21968 8.49333 4.32634C8.38611 4.43301 8.33278 4.55051 8.33333 4.67884V5.83301Z" fill="black"/>
</svg>
